<svg width="24" height="17" viewBox="0 0 24 17" fill="none" xmlns="http://www.w3.org/2000/svg">
<mask id="path-1-inside-1_1062_894" fill="white">
<path d="M8.55533 16.3945H17.5912C25.3358 16.3945 25.3358 4.56738 16.9311 4.56738H5.44988H1"/>
</mask>
<path d="M8.55533 14.3945C7.45076 14.3945 6.55533 15.2899 6.55533 16.3945C6.55533 17.499 7.45076 18.3945 8.55533 18.3945V14.3945ZM1 2.56738C-0.10457 2.56738 -1 3.46281 -1 4.56738C-1 5.67195 -0.10457 6.56738 1 6.56738V2.56738ZM8.55533 18.3945H17.5912V14.3945H8.55533V18.3945ZM17.5912 18.3945C20.0804 18.3945 22.0951 17.4233 23.4508 15.8539C24.7736 14.3224 25.3698 12.3401 25.3164 10.4251C25.2628 8.506 24.5541 6.53761 23.1141 5.0327C21.6467 3.49904 19.5342 2.56738 16.9311 2.56738V6.56738C18.5303 6.56738 19.5696 7.11411 20.224 7.79803C20.9059 8.51069 21.289 9.49907 21.3179 10.5367C21.347 11.5785 21.0164 12.5529 20.4237 13.2391C19.8638 13.8873 18.9742 14.3945 17.5912 14.3945V18.3945ZM16.9311 2.56738H5.44988V6.56738H16.9311V2.56738ZM5.44988 2.56738H1V6.56738H5.44988V2.56738Z" fill="#2196F3" mask="url(#path-1-inside-1_1062_894)"/>
<path d="M1 5.82812L5.93461 10.6564" stroke="#2196F3" stroke-width="2" stroke-linecap="round" stroke-linejoin="round"/>
<path d="M1 5.82829L5.93461 1" stroke="#2196F3" stroke-width="2" stroke-linecap="round" stroke-linejoin="round"/>
</svg>
