<svg width="32" height="32" viewBox="0 0 32 32" fill="none" xmlns="http://www.w3.org/2000/svg">
<rect x="0.25" y="0.25" width="31.5" height="31.5" rx="5.75" fill="white" stroke="#2196F3" stroke-width="0.5"/>
<path d="M16 20C18.2091 20 20 18.2091 20 16C20 13.7909 18.2091 12 16 12C13.7909 12 12 13.7909 12 16C12 18.2091 13.7909 20 16 20Z" fill="#2196F3"/>
<path d="M17 8.069V6H15V8.069C13.2403 8.29368 11.605 9.09617 10.3506 10.3506C9.09617 11.605 8.29368 13.2403 8.069 15H6V17H8.069C8.29335 18.7598 9.09574 20.3953 10.3502 21.6498C11.6047 22.9043 13.2402 23.7066 15 23.931V26H17V23.931C18.7599 23.7068 20.3955 22.9045 21.65 21.65C22.9045 20.3955 23.7068 18.7599 23.931 17H26V15H23.931C23.7066 13.2402 22.9043 11.6047 21.6498 10.3502C20.3953 9.09574 18.7598 8.29335 17 8.069ZM16 22C12.691 22 10 19.309 10 16C10 12.691 12.691 10 16 10C19.309 10 22 12.691 22 16C22 19.309 19.309 22 16 22Z" fill="#2196F3"/>
</svg>
