<svg xmlns="http://www.w3.org/2000/svg" data-name="Layer 1" fill="#2196F3" viewBox="0 0 128 160" x="0px" y="0px"><title>a</title><path d="M64,2.5A45.50871,45.50871,0,0,0,18.49211,48.00789c0,19.646,27.8,58.626,39.94321,74.7195a6.97053,6.97053,0,0,0,11.12937,0c12.14322-16.09348,39.94321-55.07351,39.94321-74.7195A45.50871,45.50871,0,0,0,64,2.5Zm0,75.79188a30.284,30.284,0,1,1,30.284-30.284A30.28421,30.28421,0,0,1,64,78.29188Z"/><circle cx="64" cy="48.00789" r="15.30188"/><text x="0" y="143" fill="#000000" font-size="5px" font-weight="bold" font-family="'Helvetica Neue', Helvetica, Arial-Unicode, Arial, Sans-serif">Created by Injamamul hoq miraz</text><text x="0" y="148" fill="#000000" font-size="5px" font-weight="bold" font-family="'Helvetica Neue', Helvetica, Arial-Unicode, Arial, Sans-serif">from the Noun Project</text></svg>